<?xml version="1.0" encoding="UTF-8"?>
<svg xmlns="http://www.w3.org/2000/svg" xmlns:xlink="http://www.w3.org/1999/xlink" width="73px" height="32px" viewBox="0 0 72 32" version="1.1">
<defs>
<filter id="alpha" filterUnits="objectBoundingBox" x="0%" y="0%" width="100%" height="100%">
  <feColorMatrix type="matrix" in="SourceGraphic" values="0 0 0 0 1 0 0 0 0 1 0 0 0 0 1 0 0 0 1 0"/>
</filter>
<mask id="mask0">
  <g filter="url(#alpha)">
<rect x="0" y="0" width="72" height="32" style="fill:rgb(0%,0%,0%);fill-opacity:0.984314;stroke:none;"/>
  </g>
</mask>
<clipPath id="clip1">
  <rect x="0" y="0" width="72" height="32"/>
</clipPath>
<g id="surface5" clip-path="url(#clip1)">
<path style=" stroke:none;fill-rule:evenodd;fill:rgb(99.215686%,99.215686%,99.215686%);fill-opacity:1;" d="M 17.359375 -0.0507812 C 18.757812 -0.0507812 20.160156 -0.0507812 21.558594 -0.0507812 C 27.414062 1.367188 30.417969 5.136719 30.570312 11.25 C 30.582031 13.476562 30.121094 15.589844 29.1875 17.601562 C 29.117188 17.6875 29.035156 17.757812 28.933594 17.804688 C 28.402344 17.632812 27.855469 17.511719 27.292969 17.445312 C 25.035156 17.441406 22.78125 17.371094 20.535156 17.238281 C 23.261719 16.367188 24.730469 14.492188 24.9375 11.613281 C 24.5625 8.136719 22.648438 6.207031 19.203125 5.832031 C 16.511719 6.050781 14.683594 7.425781 13.722656 9.960938 C 13.671875 9.792969 13.65625 9.621094 13.671875 9.445312 C 11.792969 9.480469 9.917969 9.445312 8.039062 9.34375 C 8.277344 8.09375 8.6875 6.90625 9.269531 5.78125 C 10.941406 5.730469 12.613281 5.710938 14.289062 5.730469 C 14.253906 4.109375 14.289062 2.492188 14.390625 0.878906 C 15.359375 0.460938 16.351562 0.148438 17.359375 -0.0507812 Z M 17.359375 -0.0507812 "/>
</g>
<mask id="mask1">
  <g filter="url(#alpha)">
<rect x="0" y="0" width="72" height="32" style="fill:rgb(0%,0%,0%);fill-opacity:0.984314;stroke:none;"/>
  </g>
</mask>
<clipPath id="clip2">
  <rect x="0" y="0" width="72" height="32"/>
</clipPath>
<g id="surface8" clip-path="url(#clip2)">
<path style=" stroke:none;fill-rule:evenodd;fill:rgb(99.215686%,99.215686%,99.215686%);fill-opacity:1;" d="M 42.757812 -0.0507812 C 44.195312 -0.0507812 45.628906 -0.0507812 47.0625 -0.0507812 C 52.917969 1.367188 55.921875 5.136719 56.074219 11.25 C 56.066406 13.351562 55.65625 15.363281 54.84375 17.289062 C 54.304688 17.394531 53.757812 17.425781 53.207031 17.394531 C 53.222656 18.1875 53.207031 18.976562 53.15625 19.769531 C 52 21.101562 50.582031 22.0625 48.90625 22.65625 C 48.800781 20.90625 48.769531 19.148438 48.800781 17.394531 C 47.808594 17.429688 46.820312 17.394531 45.832031 17.289062 C 48.636719 16.472656 50.171875 14.597656 50.441406 11.664062 C 50.085938 8.160156 48.175781 6.214844 44.707031 5.832031 C 41.257812 6.210938 39.347656 8.136719 38.96875 11.613281 C 39.226562 14.671875 40.828125 16.582031 43.785156 17.34375 C 41.394531 17.394531 39.003906 17.410156 36.613281 17.394531 C 36.65625 18.417969 36.554688 18.453125 36.308594 17.496094 C 36.078125 17.394531 35.839844 17.363281 35.589844 17.394531 C 35.589844 13.503906 35.589844 9.617188 35.589844 5.730469 C 37.773438 5.730469 39.960938 5.730469 42.144531 5.730469 C 42.144531 3.835938 42.144531 1.945312 42.144531 0.0507812 C 42.375 0.0820312 42.578125 0.046875 42.757812 -0.0507812 Z M 42.757812 -0.0507812 "/>
</g>
<mask id="mask2">
  <g filter="url(#alpha)">
<rect x="0" y="0" width="72" height="32" style="fill:rgb(0%,0%,0%);fill-opacity:0.988235;stroke:none;"/>
  </g>
</mask>
<clipPath id="clip3">
  <rect x="0" y="0" width="72" height="32"/>
</clipPath>
<g id="surface11" clip-path="url(#clip3)">
<path style=" stroke:none;fill-rule:evenodd;fill:rgb(99.215686%,99.215686%,99.215686%);fill-opacity:1;" d="M -0.0507812 0.257812 C 4.558594 0.257812 9.167969 0.257812 13.773438 0.257812 C 13.773438 1.910156 13.773438 3.5625 13.773438 5.214844 C 11.28125 5.214844 8.789062 5.214844 6.296875 5.214844 C 6.296875 6.796875 6.296875 8.378906 6.296875 9.960938 C 8.585938 9.960938 10.875 9.960938 13.160156 9.960938 C 13.160156 11.613281 13.160156 13.265625 13.160156 14.917969 C 10.875 14.917969 8.585938 14.917969 6.296875 14.917969 C 6.296875 17.601562 6.296875 20.285156 6.296875 22.96875 C 4.183594 22.96875 2.066406 22.96875 -0.0507812 22.96875 C -0.0507812 15.398438 -0.0507812 7.828125 -0.0507812 0.257812 Z M -0.0507812 0.257812 "/>
</g>
<mask id="mask3">
  <g filter="url(#alpha)">
<rect x="0" y="0" width="72" height="32" style="fill:rgb(0%,0%,0%);fill-opacity:0.980392;stroke:none;"/>
  </g>
</mask>
<clipPath id="clip4">
  <rect x="0" y="0" width="72" height="32"/>
</clipPath>
<g id="surface14" clip-path="url(#clip4)">
<path style=" stroke:none;fill-rule:evenodd;fill:rgb(99.215686%,99.215686%,99.215686%);fill-opacity:1;" d="M 24.527344 0.257812 C 30.230469 0.257812 35.933594 0.257812 41.632812 0.257812 C 41.632812 1.910156 41.632812 3.5625 41.632812 5.214844 C 39.449219 5.214844 37.261719 5.214844 35.078125 5.214844 C 35.078125 9.273438 35.078125 13.332031 35.078125 17.394531 C 33.574219 17.394531 32.074219 17.394531 30.570312 17.394531 C 30.539062 17.710938 30.4375 18.003906 30.265625 18.269531 C 29.976562 18.261719 29.738281 18.144531 29.546875 17.910156 C 31.679688 13.425781 31.59375 8.984375 29.292969 4.59375 C 28.128906 2.777344 26.574219 1.398438 24.632812 0.464844 C 24.550781 0.417969 24.515625 0.347656 24.527344 0.257812 Z M 24.527344 0.257812 "/>
</g>
<mask id="mask4">
  <g filter="url(#alpha)">
<rect x="0" y="0" width="72" height="32" style="fill:rgb(0%,0%,0%);fill-opacity:0.984314;stroke:none;"/>
  </g>
</mask>
<clipPath id="clip5">
  <rect x="0" y="0" width="72" height="32"/>
</clipPath>
<g id="surface17" clip-path="url(#clip5)">
<path style=" stroke:none;fill-rule:evenodd;fill:rgb(99.215686%,99.215686%,99.215686%);fill-opacity:1;" d="M 71.949219 0.257812 C 71.949219 7.828125 71.949219 15.398438 71.949219 22.96875 C 71.160156 23 70.375 22.96875 69.59375 22.863281 C 68.992188 21.046875 68.410156 19.222656 67.851562 17.394531 C 65.972656 17.410156 64.097656 17.394531 62.21875 17.34375 C 60.246094 14.714844 58.332031 12.050781 56.484375 9.34375 C 56.03125 6.589844 54.835938 4.234375 52.898438 2.269531 C 52.136719 1.640625 51.316406 1.089844 50.441406 0.621094 C 50.355469 0.515625 50.320312 0.394531 50.339844 0.257812 C 52.421875 0.222656 54.503906 0.257812 56.585938 0.359375 C 59.699219 4.539062 62.738281 8.769531 65.703125 13.058594 C 65.859375 13.15625 66.03125 13.191406 66.214844 13.160156 C 66.113281 8.863281 66.078125 4.5625 66.109375 0.257812 C 68.058594 0.257812 70.003906 0.257812 71.949219 0.257812 Z M 71.949219 0.257812 "/>
</g>
<mask id="mask5">
  <g filter="url(#alpha)">
<rect x="0" y="0" width="72" height="32" style="fill:rgb(0%,0%,0%);fill-opacity:0.968627;stroke:none;"/>
  </g>
</mask>
<clipPath id="clip6">
  <rect x="0" y="0" width="72" height="32"/>
</clipPath>
<g id="surface20" clip-path="url(#clip6)">
<path style=" stroke:none;fill-rule:evenodd;fill:rgb(98.823529%,98.823529%,98.823529%);fill-opacity:1;" d="M 13.671875 13.265625 C 14.34375 15.074219 15.570312 16.347656 17.359375 17.082031 C 14.824219 17.261719 12.757812 18.328125 11.164062 20.285156 C 9.75 18.953125 8.8125 17.335938 8.347656 15.433594 C 10.121094 15.433594 11.898438 15.433594 13.671875 15.433594 C 13.671875 14.710938 13.671875 13.988281 13.671875 13.265625 Z M 13.671875 13.265625 "/>
</g>
<mask id="mask6">
  <g filter="url(#alpha)">
<rect x="0" y="0" width="72" height="32" style="fill:rgb(0%,0%,0%);fill-opacity:0.737255;stroke:none;"/>
  </g>
</mask>
<clipPath id="clip7">
  <rect x="0" y="0" width="72" height="32"/>
</clipPath>
<g id="surface23" clip-path="url(#clip7)">
<path style=" stroke:none;fill-rule:evenodd;fill:rgb(96.862745%,96.862745%,96.862745%);fill-opacity:1;" d="M 56.175781 14.917969 C 56.277344 15.722656 56.3125 16.546875 56.277344 17.394531 C 55.964844 17.425781 55.65625 17.390625 55.355469 17.289062 C 55.675781 16.511719 55.949219 15.722656 56.175781 14.917969 Z M 56.175781 14.917969 "/>
</g>
<mask id="mask7">
  <g filter="url(#alpha)">
<rect x="0" y="0" width="72" height="32" style="fill:rgb(0%,0%,0%);fill-opacity:0.980392;stroke:none;"/>
  </g>
</mask>
<clipPath id="clip8">
  <rect x="0" y="0" width="72" height="32"/>
</clipPath>
<g id="surface26" clip-path="url(#clip8)">
<path style=" stroke:none;fill-rule:evenodd;fill:rgb(99.215686%,99.215686%,99.215686%);fill-opacity:1;" d="M 18.382812 31.949219 C 18.007812 31.949219 17.632812 31.949219 17.257812 31.949219 C 11.867188 31.449219 9.597656 28.492188 10.445312 23.070312 C 11.164062 20.214844 12.957031 18.476562 15.824219 17.859375 C 17.882812 17.5 19.929688 17.550781 21.96875 18.011719 C 21.96875 19.078125 21.96875 20.144531 21.96875 21.214844 C 20.640625 20.75 19.277344 20.558594 17.871094 20.644531 C 15.855469 20.925781 14.675781 22.078125 14.339844 24.101562 C 14.082031 27.59375 15.667969 29.160156 19.101562 28.800781 C 19.203125 27.964844 19.234375 27.121094 19.203125 26.269531 C 18.28125 26.269531 17.359375 26.269531 16.4375 26.269531 C 16.4375 25.34375 16.4375 24.414062 16.4375 23.484375 C 18.621094 23.484375 20.808594 23.484375 22.992188 23.484375 C 23.011719 25.925781 22.992188 28.371094 22.941406 30.8125 C 22.214844 31.191406 21.449219 31.449219 20.636719 31.585938 C 19.875 31.742188 19.125 31.863281 18.382812 31.949219 Z M 18.382812 31.949219 "/>
</g>
<mask id="mask8">
  <g filter="url(#alpha)">
<rect x="0" y="0" width="72" height="32" style="fill:rgb(0%,0%,0%);fill-opacity:0.976471;stroke:none;"/>
  </g>
</mask>
<clipPath id="clip9">
  <rect x="0" y="0" width="72" height="32"/>
</clipPath>
<g id="surface29" clip-path="url(#clip9)">
<path style=" stroke:none;fill-rule:evenodd;fill:rgb(99.215686%,99.215686%,99.215686%);fill-opacity:1;" d="M 22.480469 17.804688 C 24.332031 17.769531 26.175781 17.855469 28.011719 18.066406 C 30.71875 18.617188 31.726562 20.253906 31.03125 22.96875 C 30.414062 24.234375 29.40625 24.992188 28.011719 25.238281 C 28.011719 25.410156 28.011719 25.582031 28.011719 25.753906 C 28.925781 25.972656 29.628906 26.488281 30.109375 27.304688 C 30.703125 28.703125 31.265625 30.113281 31.800781 31.535156 C 30.367188 31.671875 28.933594 31.671875 27.5 31.535156 C 27.09375 30.191406 26.601562 28.882812 26.015625 27.613281 C 25.53125 26.894531 24.867188 26.585938 24.015625 26.683594 C 24.015625 28.335938 24.015625 29.988281 24.015625 31.640625 C 23.503906 31.65625 22.992188 31.636719 22.480469 31.585938 C 22.824219 31.472656 23.148438 31.316406 23.453125 31.121094 C 23.503906 28.40625 23.523438 25.6875 23.503906 22.96875 C 22.414062 22.96875 21.320312 22.96875 20.226562 22.96875 C 20.226562 22.417969 20.226562 21.867188 20.226562 21.316406 C 21.003906 21.421875 21.738281 21.664062 22.429688 22.039062 C 22.480469 20.628906 22.496094 19.21875 22.480469 17.804688 Z M 24.015625 20.386719 C 24.859375 20.320312 25.675781 20.40625 26.476562 20.644531 C 27.457031 21.707031 27.421875 22.738281 26.371094 23.742188 C 25.625 24.066406 24.839844 24.183594 24.015625 24.101562 C 24.015625 22.863281 24.015625 21.625 24.015625 20.386719 Z M 24.015625 20.386719 "/>
</g>
<mask id="mask9">
  <g filter="url(#alpha)">
<rect x="0" y="0" width="72" height="32" style="fill:rgb(0%,0%,0%);fill-opacity:0.972549;stroke:none;"/>
  </g>
</mask>
<clipPath id="clip10">
  <rect x="0" y="0" width="72" height="32"/>
</clipPath>
<g id="surface32" clip-path="url(#clip10)">
<path style=" stroke:none;fill-rule:evenodd;fill:rgb(99.215686%,99.215686%,99.215686%);fill-opacity:1;" d="M 30.980469 17.804688 C 32.644531 17.773438 34.300781 17.808594 35.949219 17.910156 C 37.429688 22.480469 38.882812 27.054688 40.300781 31.640625 C 38.9375 31.640625 37.570312 31.640625 36.203125 31.640625 C 36.019531 30.78125 35.851562 29.921875 35.691406 29.058594 C 34.226562 29.058594 32.757812 29.058594 31.289062 29.058594 C 30.988281 27.585938 30.234375 26.417969 29.035156 25.546875 C 31.410156 24.335938 32.214844 22.445312 31.441406 19.871094 C 31.222656 19.445312 30.96875 19.050781 30.675781 18.683594 C 30.765625 18.382812 30.871094 18.09375 30.980469 17.804688 Z M 33.03125 20.492188 C 33.234375 20.492188 33.441406 20.492188 33.644531 20.492188 C 33.941406 22.484375 34.386719 24.445312 34.976562 26.375 C 33.851562 26.496094 32.722656 26.511719 31.597656 26.425781 C 32.179688 24.472656 32.65625 22.496094 33.03125 20.492188 Z M 33.03125 20.492188 "/>
</g>
<mask id="mask10">
  <g filter="url(#alpha)">
<rect x="0" y="0" width="72" height="32" style="fill:rgb(0%,0%,0%);fill-opacity:0.980392;stroke:none;"/>
  </g>
</mask>
<clipPath id="clip11">
  <rect x="0" y="0" width="72" height="32"/>
</clipPath>
<g id="surface35" clip-path="url(#clip11)">
<path style=" stroke:none;fill-rule:evenodd;fill:rgb(99.215686%,99.215686%,99.215686%);fill-opacity:1;" d="M 37.125 17.804688 C 39.003906 17.789062 40.882812 17.804688 42.757812 17.859375 C 44.324219 17.78125 45.757812 18.160156 47.0625 18.992188 C 47.933594 19.949219 48.34375 21.085938 48.289062 22.398438 C 48.117188 24.605469 46.992188 26.050781 44.910156 26.734375 C 43.59375 27.03125 42.265625 27.152344 40.917969 27.097656 C 40.933594 28.578125 40.917969 30.054688 40.863281 31.535156 C 39.636719 27.75 38.40625 23.964844 37.179688 20.179688 C 37.125 19.390625 37.109375 18.597656 37.125 17.804688 Z M 40.917969 20.386719 C 41.757812 20.371094 42.574219 20.492188 43.375 20.75 C 44.195312 21.496094 44.417969 22.40625 44.039062 23.484375 C 43.699219 24.113281 43.167969 24.4375 42.453125 24.464844 C 41.941406 24.515625 41.429688 24.535156 40.917969 24.515625 C 40.917969 23.140625 40.917969 21.761719 40.917969 20.386719 Z M 40.917969 20.386719 "/>
</g>
<mask id="mask11">
  <g filter="url(#alpha)">
<rect x="0" y="0" width="72" height="32" style="fill:rgb(0%,0%,0%);fill-opacity:0.94902;stroke:none;"/>
  </g>
</mask>
<clipPath id="clip12">
  <rect x="0" y="0" width="72" height="32"/>
</clipPath>
<g id="surface38" clip-path="url(#clip12)">
<path style=" stroke:none;fill-rule:evenodd;fill:rgb(96.862745%,96.862745%,96.862745%);fill-opacity:1;" d="M 46.242188 17.804688 C 46.925781 17.804688 47.605469 17.804688 48.289062 17.804688 C 48.308594 18.460938 48.289062 19.113281 48.238281 19.769531 C 47.785156 18.984375 47.15625 18.402344 46.34375 18.011719 C 46.261719 17.964844 46.226562 17.898438 46.242188 17.804688 Z M 46.242188 17.804688 "/>
</g>
<mask id="mask12">
  <g filter="url(#alpha)">
<rect x="0" y="0" width="72" height="32" style="fill:rgb(0%,0%,0%);fill-opacity:0.972549;stroke:none;"/>
  </g>
</mask>
<clipPath id="clip13">
  <rect x="0" y="0" width="72" height="32"/>
</clipPath>
<g id="surface41" clip-path="url(#clip13)">
<path style=" stroke:none;fill-rule:evenodd;fill:rgb(99.215686%,99.215686%,99.215686%);fill-opacity:1;" d="M 53.71875 17.804688 C 54.980469 17.804688 56.246094 17.804688 57.507812 17.804688 C 57.507812 22.417969 57.507812 27.027344 57.507812 31.640625 C 56.246094 31.640625 54.980469 31.640625 53.71875 31.640625 C 53.71875 29.882812 53.71875 28.128906 53.71875 26.375 C 51.910156 26.375 50.097656 26.375 48.289062 26.375 C 48.289062 28.128906 48.289062 29.882812 48.289062 31.640625 C 47.027344 31.640625 45.765625 31.640625 44.5 31.640625 C 44.5 30.195312 44.5 28.75 44.5 27.304688 C 46.777344 26.832031 48.179688 25.453125 48.699219 23.175781 C 50.371094 23.175781 52.046875 23.175781 53.71875 23.175781 C 53.71875 21.386719 53.71875 19.59375 53.71875 17.804688 Z M 53.71875 17.804688 "/>
</g>
<mask id="mask13">
  <g filter="url(#alpha)">
<rect x="0" y="0" width="72" height="32" style="fill:rgb(0%,0%,0%);fill-opacity:0.94902;stroke:none;"/>
  </g>
</mask>
<clipPath id="clip14">
  <rect x="0" y="0" width="72" height="32"/>
</clipPath>
<g id="surface44" clip-path="url(#clip14)">
<path style=" stroke:none;fill-rule:evenodd;fill:rgb(99.215686%,99.215686%,99.215686%);fill-opacity:1;" d="M 58.019531 17.804688 C 58.804688 17.804688 59.589844 17.804688 60.375 17.804688 C 60.375 22.417969 60.375 27.027344 60.375 31.640625 C 59.589844 31.640625 58.804688 31.640625 58.019531 31.640625 C 58.019531 27.027344 58.019531 22.417969 58.019531 17.804688 Z M 58.019531 17.804688 "/>
</g>
<mask id="mask14">
  <g filter="url(#alpha)">
<rect x="0" y="0" width="72" height="32" style="fill:rgb(0%,0%,0%);fill-opacity:0.976471;stroke:none;"/>
  </g>
</mask>
<clipPath id="clip15">
  <rect x="0" y="0" width="72" height="32"/>
</clipPath>
<g id="surface47" clip-path="url(#clip15)">
<path style=" stroke:none;fill-rule:evenodd;fill:rgb(99.215686%,99.215686%,99.215686%);fill-opacity:1;" d="M 62.527344 17.804688 C 64.167969 17.773438 65.804688 17.804688 67.441406 17.910156 C 68.972656 22.46875 70.441406 27.042969 71.847656 31.640625 C 70.480469 31.640625 69.113281 31.640625 67.75 31.640625 C 67.570312 30.789062 67.363281 29.945312 67.136719 29.109375 C 65.597656 29.023438 64.0625 29.039062 62.527344 29.160156 C 62.289062 29.980469 62.085938 30.804688 61.910156 31.640625 C 61.570312 31.640625 61.230469 31.640625 60.886719 31.640625 C 60.871094 28.542969 60.886719 25.445312 60.9375 22.347656 C 61.457031 20.828125 61.988281 19.3125 62.527344 17.804688 Z M 64.574219 20.492188 C 64.746094 20.492188 64.917969 20.492188 65.085938 20.492188 C 65.460938 22.496094 65.9375 24.472656 66.519531 26.425781 C 65.390625 26.511719 64.265625 26.496094 63.140625 26.375 C 63.699219 24.433594 64.175781 22.46875 64.574219 20.492188 Z M 64.574219 20.492188 "/>
</g>
<mask id="mask15">
  <g filter="url(#alpha)">
<rect x="0" y="0" width="72" height="32" style="fill:rgb(0%,0%,0%);fill-opacity:0.878431;stroke:none;"/>
  </g>
</mask>
<clipPath id="clip16">
  <rect x="0" y="0" width="72" height="32"/>
</clipPath>
<g id="surface50" clip-path="url(#clip16)">
<path style=" stroke:none;fill-rule:evenodd;fill:rgb(98.039216%,98.039216%,98.039216%);fill-opacity:1;" d="M 53 20.59375 C 53.203125 21.238281 53.269531 21.925781 53.207031 22.65625 C 52.246094 22.691406 51.292969 22.65625 50.339844 22.554688 C 51.34375 22.050781 52.230469 21.398438 53 20.59375 Z M 53 20.59375 "/>
</g>
<mask id="mask16">
  <g filter="url(#alpha)">
<rect x="0" y="0" width="72" height="32" style="fill:rgb(0%,0%,0%);fill-opacity:0.870588;stroke:none;"/>
  </g>
</mask>
<clipPath id="clip17">
  <rect x="0" y="0" width="72" height="32"/>
</clipPath>
<g id="surface53" clip-path="url(#clip17)">
<path style=" stroke:none;fill-rule:evenodd;fill:rgb(97.647059%,97.647059%,97.647059%);fill-opacity:1;" d="M 24.527344 20.800781 C 25.109375 20.769531 25.652344 20.875 26.167969 21.109375 C 25.703125 21.542969 25.175781 21.886719 24.582031 22.140625 C 24.527344 21.695312 24.511719 21.25 24.527344 20.800781 Z M 24.527344 20.800781 "/>
</g>
<mask id="mask17">
  <g filter="url(#alpha)">
<rect x="0" y="0" width="72" height="32" style="fill:rgb(0%,0%,0%);fill-opacity:0.933333;stroke:none;"/>
  </g>
</mask>
<clipPath id="clip18">
  <rect x="0" y="0" width="72" height="32"/>
</clipPath>
<g id="surface56" clip-path="url(#clip18)">
<path style=" stroke:none;fill-rule:evenodd;fill:rgb(98.823529%,98.823529%,98.823529%);fill-opacity:1;" d="M 41.429688 20.902344 C 42.070312 20.894531 42.683594 21.015625 43.273438 21.265625 C 43.601562 21.605469 43.773438 22.015625 43.785156 22.503906 C 43.726562 22.75 43.660156 22.992188 43.578125 23.226562 C 42.855469 23.265625 42.140625 23.214844 41.429688 23.070312 C 41.429688 22.347656 41.429688 21.625 41.429688 20.902344 Z M 41.429688 20.902344 "/>
</g>
<mask id="mask18">
  <g filter="url(#alpha)">
<rect x="0" y="0" width="72" height="32" style="fill:rgb(0%,0%,0%);fill-opacity:0.964706;stroke:none;"/>
  </g>
</mask>
<clipPath id="clip19">
  <rect x="0" y="0" width="72" height="32"/>
</clipPath>
<g id="surface59" clip-path="url(#clip19)">
<path style=" stroke:none;fill-rule:evenodd;fill:rgb(99.215686%,99.215686%,99.215686%);fill-opacity:1;" d="M 17.667969 21.109375 C 18.320312 21.078125 18.96875 21.113281 19.613281 21.214844 C 19.714844 21.792969 19.75 22.378906 19.714844 22.96875 C 18.242188 22.996094 16.777344 22.960938 15.3125 22.863281 C 15.457031 22.351562 15.765625 21.953125 16.234375 21.675781 C 16.699219 21.425781 17.175781 21.234375 17.667969 21.109375 Z M 17.667969 21.109375 "/>
</g>
<mask id="mask19">
  <g filter="url(#alpha)">
<rect x="0" y="0" width="72" height="32" style="fill:rgb(0%,0%,0%);fill-opacity:0.694118;stroke:none;"/>
  </g>
</mask>
<clipPath id="clip20">
  <rect x="0" y="0" width="72" height="32"/>
</clipPath>
<g id="surface62" clip-path="url(#clip20)">
<path style=" stroke:none;fill-rule:evenodd;fill:rgb(98.039216%,98.039216%,98.039216%);fill-opacity:1;" d="M 33.234375 22.039062 C 33.414062 22.3125 33.515625 22.621094 33.542969 22.96875 C 33.359375 22.996094 33.1875 22.960938 33.03125 22.863281 C 33.128906 22.597656 33.199219 22.320312 33.234375 22.039062 Z M 33.234375 22.039062 "/>
</g>
<mask id="mask20">
  <g filter="url(#alpha)">
<rect x="0" y="0" width="72" height="32" style="fill:rgb(0%,0%,0%);fill-opacity:0.768627;stroke:none;"/>
  </g>
</mask>
<clipPath id="clip21">
  <rect x="0" y="0" width="72" height="32"/>
</clipPath>
<g id="surface65" clip-path="url(#clip21)">
<path style=" stroke:none;fill-rule:evenodd;fill:rgb(92.941176%,92.941176%,92.941176%);fill-opacity:1;" d="M 26.578125 30.605469 C 26.773438 30.917969 26.910156 31.261719 26.988281 31.640625 C 26.738281 31.671875 26.5 31.636719 26.269531 31.535156 C 26.394531 31.230469 26.496094 30.921875 26.578125 30.605469 Z M 26.578125 30.605469 "/>
</g>
</defs>
<g id="surface1">
<use xlink:href="#surface5" mask="url(#mask0)"/>
<use xlink:href="#surface8" mask="url(#mask1)"/>
<use xlink:href="#surface11" mask="url(#mask2)"/>
<use xlink:href="#surface14" mask="url(#mask3)"/>
<use xlink:href="#surface17" mask="url(#mask4)"/>
<use xlink:href="#surface20" mask="url(#mask5)"/>
<use xlink:href="#surface23" mask="url(#mask6)"/>
<use xlink:href="#surface26" mask="url(#mask7)"/>
<use xlink:href="#surface29" mask="url(#mask8)"/>
<use xlink:href="#surface32" mask="url(#mask9)"/>
<use xlink:href="#surface35" mask="url(#mask10)"/>
<use xlink:href="#surface38" mask="url(#mask11)"/>
<use xlink:href="#surface41" mask="url(#mask12)"/>
<use xlink:href="#surface44" mask="url(#mask13)"/>
<use xlink:href="#surface47" mask="url(#mask14)"/>
<use xlink:href="#surface50" mask="url(#mask15)"/>
<use xlink:href="#surface53" mask="url(#mask16)"/>
<use xlink:href="#surface56" mask="url(#mask17)"/>
<use xlink:href="#surface59" mask="url(#mask18)"/>
<use xlink:href="#surface62" mask="url(#mask19)"/>
<use xlink:href="#surface65" mask="url(#mask20)"/>
</g>
</svg>
