<?xml version="1.0" encoding="UTF-8"?>
<!DOCTYPE svg PUBLIC "-//W3C//DTD SVG 1.1//EN" "http://www.w3.org/Graphics/SVG/1.1/DTD/svg11.dtd">
<svg xmlns="http://www.w3.org/2000/svg" version="1.1" width="128px" height="128px" style="shape-rendering:geometricPrecision; text-rendering:geometricPrecision; image-rendering:optimizeQuality; fill-rule:evenodd; clip-rule:evenodd" xmlns:xlink="http://www.w3.org/1999/xlink">
<g><path style="opacity:0.872" fill="#000000" d="M 52.5,-0.5 C 59.8333,-0.5 67.1667,-0.5 74.5,-0.5C 103.167,6.16667 120.833,23.8333 127.5,52.5C 127.5,59.8333 127.5,67.1667 127.5,74.5C 109.5,91.8333 91.8333,109.5 74.5,127.5C 67.1667,127.5 59.8333,127.5 52.5,127.5C 24.2818,120.949 6.61511,103.615 -0.5,75.5C -0.5,67.5 -0.5,59.5 -0.5,51.5C 6.61511,23.3847 24.2818,6.05134 52.5,-0.5 Z M 56.5,7.5 C 86.2845,6.465 106.451,19.7983 117,47.5C 119.279,54.0615 119.779,60.7282 118.5,67.5C 95.5549,65.639 79.2216,75.139 69.5,96C 52.7085,97.9378 40.3752,91.4378 32.5,76.5C 29.4273,77.0256 27.0939,78.5256 25.5,81C 34.2143,97.8251 48.2143,106.325 67.5,106.5C 66.1667,110.5 66.1667,114.5 67.5,118.5C 41.963,119.485 23.463,108.485 12,85.5C 2.257,56.0622 10.0903,32.5622 35.5,15C 42.2948,11.571 49.2948,9.07099 56.5,7.5 Z M 39.5,45.5 C 40.675,45.281 41.675,45.6143 42.5,46.5C 45.3925,51.2522 44.8925,55.5855 41,59.5C 36.9445,55.2587 36.4445,50.5921 39.5,45.5 Z M 84.5,45.5 C 85.675,45.281 86.675,45.6143 87.5,46.5C 90.3925,51.2522 89.8925,55.5855 86,59.5C 81.9445,55.2587 81.4445,50.5921 84.5,45.5 Z M 105.5,75.5 C 108.187,75.3359 110.854,75.5026 113.5,76C 101,88.5 88.5,101 76,113.5C 76.4715,93.5537 86.3049,80.887 105.5,75.5 Z"/></g>
<g><path style="opacity:0.874" fill="#000000" d="M 38.5,36.5 C 48.0773,37.1209 52.744,42.2876 52.5,52C 52.3442,63.8485 46.6775,68.5151 35.5,66C 31.1738,62.3616 29.1738,57.695 29.5,52C 29.0626,44.6933 32.0626,39.5266 38.5,36.5 Z M 39.5,45.5 C 36.4445,50.5921 36.9445,55.2587 41,59.5C 44.8925,55.5855 45.3925,51.2522 42.5,46.5C 41.675,45.6143 40.675,45.281 39.5,45.5 Z"/></g>
<g><path style="opacity:0.874" fill="#000000" d="M 83.5,36.5 C 93.0773,37.1209 97.744,42.2876 97.5,52C 97.3442,63.8485 91.6775,68.5151 80.5,66C 76.1738,62.3616 74.1738,57.695 74.5,52C 74.0626,44.6933 77.0626,39.5266 83.5,36.5 Z M 84.5,45.5 C 81.4445,50.5921 81.9445,55.2587 86,59.5C 89.8925,55.5855 90.3925,51.2522 87.5,46.5C 86.675,45.6143 85.675,45.281 84.5,45.5 Z"/></g>
</svg>
